<svg width="251" height="187" viewBox="0 0 251 187" fill="none" xmlns="http://www.w3.org/2000/svg">
<mask id="mask0_9_18" style="mask-type:luminance" maskUnits="userSpaceOnUse" x="0" y="0" width="251" height="187">
<path d="M250.925 0H0.949463V186.674H250.925V0Z" fill="white"/>
</mask>
<g mask="url(#mask0_9_18)">
<path d="M188.435 186.674V173.34C188.435 171.589 188.031 169.855 187.246 168.237C186.461 166.62 185.31 165.15 183.86 163.911C182.408 162.673 180.686 161.691 178.791 161.021C176.895 160.351 174.863 160.006 172.812 160.006H110.313C89.5954 160.006 69.7259 152.982 55.0758 140.479C40.4258 127.976 32.1954 111.019 32.1951 93.337C32.1951 84.5818 34.2157 75.9124 38.1415 67.8237C42.0674 59.7349 47.8216 52.3854 55.0756 46.1945C62.3295 40.0037 70.9412 35.093 80.419 31.7426C89.8967 28.3922 100.055 26.6679 110.313 26.668H172.807C174.859 26.6685 176.892 26.324 178.787 25.6542C180.683 24.9843 182.407 24.0022 183.857 22.764C185.309 21.5257 186.46 20.0556 187.246 18.4376C188.031 16.8196 188.435 15.0854 188.435 13.334V0H110.317C95.9551 -7.03494e-10 81.7339 2.41424 68.4651 7.10487C55.1965 11.7955 43.1403 18.6707 32.9851 27.3378C22.8297 36.005 14.774 46.2944 9.27807 57.6186C3.78212 68.9427 0.953459 81.0799 0.953613 93.337C0.953613 118.091 12.4757 141.832 32.9853 159.336C53.4949 176.84 81.3119 186.674 110.317 186.674H188.435Z" fill="url(#paint0_linear_9_18)"/>
<path d="M63.4431 93.337C63.4431 103.946 68.3811 114.12 77.1707 121.621C85.9602 129.123 97.8815 133.337 110.312 133.337H188.436C196.724 133.337 204.67 136.147 210.53 141.148C216.39 146.149 219.682 152.932 219.682 160.005V186.673H250.93V160.006C250.93 145.861 244.346 132.295 232.626 122.292C220.906 112.29 205.01 106.671 188.436 106.671H110.314C106.17 106.671 102.197 105.266 99.2665 102.766C96.3365 100.265 94.6905 96.8734 94.6905 93.337C94.6905 89.8006 96.3365 86.4091 99.2665 83.9084C102.197 81.4078 106.17 80.003 110.314 80.003H188.436C205.01 80.003 220.906 74.3838 232.626 64.3815C244.346 54.3793 250.93 40.8133 250.93 26.668V0H219.678V26.668C219.678 33.7398 216.386 40.5221 210.528 45.523C204.669 50.5239 196.722 53.3339 188.436 53.335H110.314C104.159 53.3347 98.0639 54.3692 92.377 56.3794C86.6902 58.3896 81.5231 61.3362 77.1707 65.0507C72.8183 68.7653 69.3658 73.1752 67.0104 78.0286C64.655 82.882 63.4429 88.0838 63.4431 93.337Z" fill="url(#paint1_linear_9_18)"/>
</g>
<defs>
<linearGradient id="paint0_linear_9_18" x1="29.2633" y1="93.337" x2="269.803" y2="93.337" gradientUnits="userSpaceOnUse">
<stop stop-color="#F54A48"/>
<stop offset="1" stop-color="#FA982F"/>
</linearGradient>
<linearGradient id="paint1_linear_9_18" x1="29.1331" y1="93.3365" x2="269.866" y2="93.3365" gradientUnits="userSpaceOnUse">
<stop stop-color="#F54A48"/>
<stop offset="1" stop-color="#FA982F"/>
</linearGradient>
</defs>
</svg>
