<svg width="749" height="187" viewBox="0 0 749 187" fill="none" xmlns="http://www.w3.org/2000/svg">
<mask id="mask0_11_2" style="mask-type:luminance" maskUnits="userSpaceOnUse" x="0" y="0" width="251" height="187">
<path d="M250.925 0H0.949463V186.674H250.925V0Z" fill="white"/>
</mask>
<g mask="url(#mask0_11_2)">
<path d="M188.435 186.674V173.34C188.435 171.589 188.031 169.855 187.246 168.237C186.461 166.62 185.31 165.15 183.86 163.911C182.408 162.673 180.686 161.691 178.791 161.021C176.895 160.351 174.863 160.006 172.812 160.006H110.313C89.5954 160.006 69.7259 152.982 55.0758 140.479C40.4258 127.976 32.1954 111.019 32.1951 93.337C32.1951 84.5818 34.2157 75.9124 38.1415 67.8237C42.0674 59.7349 47.8216 52.3854 55.0756 46.1945C62.3295 40.0037 70.9412 35.093 80.419 31.7426C89.8966 28.3922 100.055 26.6679 110.313 26.668H172.807C174.859 26.6685 176.892 26.324 178.787 25.6542C180.683 24.9843 182.407 24.0022 183.857 22.764C185.309 21.5257 186.46 20.0556 187.246 18.4376C188.031 16.8196 188.435 15.0854 188.435 13.334V0H110.317C95.9551 -7.03494e-10 81.7339 2.41424 68.4651 7.10487C55.1965 11.7955 43.1403 18.6707 32.985 27.3378C22.8297 36.005 14.774 46.2944 9.27807 57.6186C3.78212 68.9427 0.953459 81.0799 0.953613 93.337C0.953613 118.091 12.4757 141.832 32.9853 159.336C53.4949 176.84 81.3119 186.674 110.317 186.674H188.435Z" fill="url(#paint0_linear_11_2)"/>
<path d="M63.4431 93.337C63.4431 103.946 68.3811 114.12 77.1707 121.621C85.9602 129.123 97.8815 133.337 110.312 133.337H188.436C196.724 133.337 204.67 136.147 210.53 141.148C216.39 146.149 219.682 152.932 219.682 160.005V186.673H250.93V160.006C250.93 145.861 244.346 132.295 232.626 122.292C220.906 112.29 205.01 106.671 188.436 106.671H110.314C106.17 106.671 102.197 105.266 99.2665 102.766C96.3365 100.265 94.6905 96.8734 94.6905 93.337C94.6905 89.8006 96.3365 86.4091 99.2665 83.9084C102.197 81.4078 106.17 80.003 110.314 80.003H188.436C205.01 80.003 220.906 74.3838 232.626 64.3815C244.346 54.3793 250.93 40.8133 250.93 26.668V0H219.678V26.668C219.678 33.7398 216.386 40.5221 210.528 45.523C204.669 50.5239 196.722 53.3339 188.436 53.335H110.314C104.159 53.3347 98.0639 54.3692 92.377 56.3794C86.6902 58.3896 81.5231 61.3362 77.1707 65.0507C72.8183 68.7653 69.3658 73.1752 67.0104 78.0286C64.655 82.882 63.4429 88.0838 63.4431 93.337Z" fill="url(#paint1_linear_11_2)"/>
</g>
<path d="M329.182 78C328.939 74.9697 327.803 72.6061 325.773 70.9091C323.773 69.2121 320.727 68.3636 316.636 68.3636C314.03 68.3636 311.894 68.6818 310.227 69.3182C308.591 69.9242 307.379 70.7576 306.591 71.8182C305.803 72.8788 305.394 74.0909 305.364 75.4545C305.303 76.5758 305.5 77.5909 305.955 78.5C306.439 79.3788 307.197 80.1818 308.227 80.9091C309.258 81.6061 310.576 82.2424 312.182 82.8182C313.788 83.3939 315.697 83.9091 317.909 84.3636L325.545 86C330.697 87.0909 335.106 88.5303 338.773 90.3182C342.439 92.1061 345.439 94.2121 347.773 96.6364C350.106 99.0303 351.818 101.727 352.909 104.727C354.03 107.727 354.606 111 354.636 114.545C354.606 120.667 353.076 125.848 350.045 130.091C347.015 134.333 342.682 137.561 337.045 139.773C331.439 141.985 324.697 143.091 316.818 143.091C308.727 143.091 301.667 141.894 295.636 139.5C289.636 137.106 284.97 133.424 281.636 128.455C278.333 123.455 276.667 117.061 276.636 109.273H300.636C300.788 112.121 301.5 114.515 302.773 116.455C304.045 118.394 305.833 119.864 308.136 120.864C310.47 121.864 313.242 122.364 316.455 122.364C319.152 122.364 321.409 122.03 323.227 121.364C325.045 120.697 326.424 119.773 327.364 118.591C328.303 117.409 328.788 116.061 328.818 114.545C328.788 113.121 328.318 111.879 327.409 110.818C326.53 109.727 325.076 108.758 323.045 107.909C321.015 107.03 318.273 106.212 314.818 105.455L305.545 103.455C297.303 101.667 290.803 98.6818 286.045 94.5C281.318 90.2879 278.97 84.5455 279 77.2727C278.97 71.3636 280.545 66.197 283.727 61.7727C286.939 57.3182 291.379 53.8485 297.045 51.3636C302.742 48.8788 309.273 47.6364 316.636 47.6364C324.152 47.6364 330.652 48.8939 336.136 51.4091C341.621 53.9242 345.848 57.4697 348.818 62.0455C351.818 66.5909 353.333 71.9091 353.364 78H329.182ZM419.341 48.9091H444.614V108.545C444.614 115.636 442.917 121.773 439.523 126.955C436.159 132.106 431.462 136.091 425.432 138.909C419.402 141.697 412.402 143.091 404.432 143.091C396.402 143.091 389.371 141.697 383.341 138.909C377.311 136.091 372.614 132.106 369.25 126.955C365.917 121.773 364.25 115.636 364.25 108.545V48.9091H389.523V106.364C389.523 109.242 390.159 111.818 391.432 114.091C392.705 116.333 394.462 118.091 396.705 119.364C398.977 120.636 401.553 121.273 404.432 121.273C407.341 121.273 409.917 120.636 412.159 119.364C414.402 118.091 416.159 116.333 417.432 114.091C418.705 111.818 419.341 109.242 419.341 106.364V48.9091ZM456.625 48.9091H488.08L509.716 101.636H510.807L532.443 48.9091H563.898V142H539.17V88.1818H538.443L517.716 141.273H502.807L482.08 87.8182H481.352V142H456.625V48.9091ZM575.875 142V48.9091H616.057C622.966 48.9091 629.011 50.1667 634.193 52.6818C639.375 55.197 643.405 58.8182 646.284 63.5455C649.163 68.2727 650.602 73.9394 650.602 80.5455C650.602 87.2121 649.117 92.8333 646.148 97.4091C643.208 101.985 639.072 105.439 633.739 107.773C628.436 110.106 622.239 111.273 615.148 111.273H591.148V91.6364H610.057C613.027 91.6364 615.557 91.2727 617.648 90.5455C619.769 89.7879 621.39 88.5909 622.511 86.9545C623.663 85.3182 624.239 83.1818 624.239 80.5455C624.239 77.8788 623.663 75.7121 622.511 74.0455C621.39 72.3485 619.769 71.1061 617.648 70.3182C615.557 69.5 613.027 69.0909 610.057 69.0909H601.148V142H575.875ZM630.42 99.2727L653.693 142H626.239L603.511 99.2727H630.42ZM653.182 48.9091H681.364L699.545 86.7273H700.273L718.455 48.9091H746.636L712.455 112.727V142H687.364V112.727L653.182 48.9091Z" fill="black"/>
<defs>
<linearGradient id="paint0_linear_11_2" x1="29.2633" y1="93.337" x2="269.803" y2="93.337" gradientUnits="userSpaceOnUse">
<stop stop-color="#F54A48"/>
<stop offset="1" stop-color="#FA982F"/>
</linearGradient>
<linearGradient id="paint1_linear_11_2" x1="29.1331" y1="93.3365" x2="269.866" y2="93.3365" gradientUnits="userSpaceOnUse">
<stop stop-color="#F54A48"/>
<stop offset="1" stop-color="#FA982F"/>
</linearGradient>
</defs>
</svg>
